<svg width="24" height="25" viewBox="0 0 24 25" fill="none" xmlns="http://www.w3.org/2000/svg">
<path d="M6 12.5C6 11.8373 6.53726 11.3 7.2 11.3H10.8V7.7C10.8 7.03726 11.3373 6.5 12 6.5C12.6627 6.5 13.2 7.03726 13.2 7.7V11.3H16.8C17.4627 11.3 18 11.8373 18 12.5C18 13.1627 17.4627 13.7 16.8 13.7H13.2V17.3C13.2 17.9627 12.6627 18.5 12 18.5C11.3373 18.5 10.8 17.9627 10.8 17.3V13.7H7.2C6.53726 13.7 6 13.1627 6 12.5Z" fill="#424242"/>
<path fill-rule="evenodd" clip-rule="evenodd" d="M0 12.5C0 5.87258 5.37258 0.5 12 0.5C18.6274 0.5 24 5.87258 24 12.5C24 19.1274 18.6274 24.5 12 24.5C5.37258 24.5 0 19.1274 0 12.5ZM12 2.9C6.69807 2.9 2.4 7.19807 2.4 12.5C2.4 17.8019 6.69807 22.1 12 22.1C17.3019 22.1 21.6 17.8019 21.6 12.5C21.6 7.19807 17.3019 2.9 12 2.9Z" fill="#424242"/>
</svg>
