<svg width="20" height="20" viewBox="0 0 20 20" fill="none" xmlns="http://www.w3.org/2000/svg">
<mask id="path-1-inside-1_4_35" fill="white">
<path d="M19.8781 19.2883L13.7932 13.2033C15.0565 11.8 15.8332 9.95002 15.8332 7.91667C15.8332 3.55167 12.2815 0 7.91656 0C3.5516 0 0 3.55167 0 7.91667C0 12.2817 3.55164 15.8333 7.9166 15.8333C9.94989 15.8333 11.7999 15.0567 13.2032 13.7925L19.2882 19.8775C19.3268 19.9164 19.3728 19.9472 19.4234 19.9682C19.474 19.9892 19.5283 20 19.5832 20C19.6898 20 19.7965 19.9592 19.8781 19.8783C19.9562 19.8 20 19.6939 20 19.5833C20 19.4727 19.9562 19.3667 19.8781 19.2883ZM7.9166 15C4.01082 15 0.83335 11.8225 0.83335 7.9167C0.83335 4.01089 4.01078 0.833358 7.9166 0.833358C11.8224 0.833358 14.9998 4.01085 14.9998 7.91667C14.9998 11.8225 11.8224 15 7.9166 15Z"/>
</mask>
<path d="M19.8781 19.2883L13.7932 13.2033C15.0565 11.8 15.8332 9.95002 15.8332 7.91667C15.8332 3.55167 12.2815 0 7.91656 0C3.5516 0 0 3.55167 0 7.91667C0 12.2817 3.55164 15.8333 7.9166 15.8333C9.94989 15.8333 11.7999 15.0567 13.2032 13.7925L19.2882 19.8775C19.3268 19.9164 19.3728 19.9472 19.4234 19.9682C19.474 19.9892 19.5283 20 19.5832 20C19.6898 20 19.7965 19.9592 19.8781 19.8783C19.9562 19.8 20 19.6939 20 19.5833C20 19.4727 19.9562 19.3667 19.8781 19.2883ZM7.9166 15C4.01082 15 0.83335 11.8225 0.83335 7.9167C0.83335 4.01089 4.01078 0.833358 7.9166 0.833358C11.8224 0.833358 14.9998 4.01085 14.9998 7.91667C14.9998 11.8225 11.8224 15 7.9166 15Z" fill="#3A3A3A"/>
<path d="M19.8781 19.2883L20.5865 18.5825L20.5852 18.5812L19.8781 19.2883ZM13.7932 13.2033L13.05 12.5343L12.4151 13.2395L13.0861 13.9104L13.7932 13.2033ZM15.8332 7.91667H14.8332H15.8332ZM13.2032 13.7925L13.9103 13.0854L13.2392 12.4142L12.5339 13.0495L13.2032 13.7925ZM19.2882 19.8775L19.997 19.1721L19.9953 19.1704L19.2882 19.8775ZM19.5832 20V19H19.5825L19.5832 20ZM19.8781 19.8783L20.5817 20.589L20.5866 20.5841L19.8781 19.8783ZM20.5852 18.5812L14.5003 12.4962L13.0861 13.9104L19.171 19.9954L20.5852 18.5812ZM14.5364 13.8724C15.9559 12.2956 16.8332 10.2104 16.8332 7.91667H14.8332C14.8332 9.68963 14.1571 11.3045 13.05 12.5343L14.5364 13.8724ZM16.8332 7.91667C16.8332 2.9994 12.8338 -1 7.91656 -1V1C11.7292 1 14.8332 4.10395 14.8332 7.91667H16.8332ZM7.91656 -1C2.9993 -1 -1 2.9994 -1 7.91667H1C1 4.10394 4.1039 1 7.91656 1V-1ZM-1 7.91667C-1 12.8339 2.99935 16.8333 7.9166 16.8333V14.8333C4.10393 14.8333 1 11.7294 1 7.91667H-1ZM7.9166 16.8333C10.2103 16.8333 12.2956 15.956 13.8725 14.5355L12.5339 13.0495C11.3042 14.1573 9.68946 14.8333 7.9166 14.8333V16.8333ZM12.4961 14.4996L18.581 20.5846L19.9953 19.1704L13.9103 13.0854L12.4961 14.4996ZM18.5793 20.5829C18.711 20.7152 18.8675 20.8202 19.0399 20.8917L19.8069 19.0447C19.8781 19.0742 19.9426 19.1175 19.997 19.1721L18.5793 20.5829ZM19.0399 20.8917C19.2123 20.9633 19.3971 21.0001 19.5838 21L19.5825 19C19.6595 19 19.7358 19.0151 19.8069 19.0447L19.0399 20.8917ZM19.5832 21C19.945 21 20.3069 20.861 20.5817 20.589L19.1746 19.1677C19.286 19.0574 19.4347 19 19.5832 19V21ZM20.5866 20.5841C20.8514 20.3183 21 19.9584 21 19.5832L19 19.5834C19 19.4294 19.061 19.2817 19.1697 19.1726L20.5866 20.5841ZM21 19.5832C21 19.2081 20.8513 18.8482 20.5865 18.5825L19.1697 19.9942C19.061 19.8851 19 19.7374 19 19.5834L21 19.5832ZM7.9166 14C4.56311 14 1.83335 11.2702 1.83335 7.9167H-0.16665C-0.16665 12.3748 3.45852 16 7.9166 16V14ZM1.83335 7.9167C1.83335 4.56316 4.56308 1.83336 7.9166 1.83336V-0.166642C3.45847 -0.166642 -0.16665 3.45863 -0.16665 7.9167H1.83335ZM7.9166 1.83336C11.2701 1.83336 13.9998 4.56313 13.9998 7.91667H15.9998C15.9998 3.45858 12.3747 -0.166642 7.9166 -0.166642V1.83336ZM13.9998 7.91667C13.9998 11.2702 11.2701 14 7.9166 14V16C12.3747 16 15.9998 12.3747 15.9998 7.91667H13.9998Z" fill="#3A3A3A" mask="url(#path-1-inside-1_4_35)"/>
</svg>
