<svg width="32" height="33" viewBox="0 0 32 33" fill="none" xmlns="http://www.w3.org/2000/svg">
<path fill-rule="evenodd" clip-rule="evenodd" d="M25.568 29.324C22.8066 31.3907 19.4491 32.5052 16 32.5C11.8964 32.5058 7.94848 30.9292 4.97761 28.0984C3.40268 26.6053 2.14893 24.8066 1.29307 22.8124C0.437199 20.8181 -0.00279115 18.6702 1.33226e-05 16.5C1.33226e-05 7.6632 7.16321 0.5 16 0.5C24.8368 0.5 32 7.6632 32 16.5C32.0036 18.9913 31.4238 21.4489 30.3068 23.6758C29.1899 25.9027 27.5669 27.8371 25.568 29.324ZM22.4 14.1C22.3999 12.9916 22.1119 11.9022 21.5642 10.9385C21.0165 9.9748 20.2279 9.16989 19.2757 8.60256C18.3234 8.03524 17.2401 7.72496 16.1319 7.70211C15.0237 7.67926 13.9286 7.94461 12.9538 8.4722C11.979 8.99978 11.1579 9.7715 10.5709 10.7118C9.98397 11.6521 9.6513 12.7287 9.60548 13.8362C9.55965 14.9436 9.80225 16.044 10.3095 17.0296C10.8168 18.0152 11.5713 18.8521 12.4992 19.4584C10.8833 19.9923 9.40996 20.8865 8.19037 22.0734C6.97078 23.2603 6.03687 24.7088 5.45921 26.3096C3.54924 24.2568 2.28011 21.6911 1.80758 18.9273C1.33504 16.1635 1.67966 13.3219 2.79914 10.7512C3.91862 8.18049 5.76425 5.99252 8.10953 4.45582C10.4548 2.91911 13.1977 2.10053 16.0016 2.10053C18.8055 2.10053 21.5484 2.91911 23.8937 4.45582C26.2389 5.99252 28.0846 8.18049 29.2041 10.7512C30.3235 13.3219 30.6682 16.1635 30.1956 18.9273C29.7231 21.6911 28.454 24.2568 26.544 26.3096C25.9661 24.7084 25.0317 23.2596 23.8116 22.0727C22.5914 20.8858 21.1173 19.9918 19.5008 19.4584C20.3916 18.8768 21.1232 18.0823 21.6295 17.1466C22.1357 16.211 22.4005 15.1638 22.4 14.1ZM20.8 14.1C20.8 15.373 20.2943 16.5939 19.3941 17.4941C18.4939 18.3943 17.273 18.9 16 18.9C14.727 18.9 13.5061 18.3943 12.6059 17.4941C11.7057 16.5939 11.2 15.373 11.2 14.1C11.2 12.827 11.7057 11.6061 12.6059 10.7059C13.5061 9.80571 14.727 9.29999 16 9.29999C17.273 9.29999 18.4939 9.80571 19.3941 10.7059C20.2943 11.6061 20.8 12.827 20.8 14.1ZM6.74721 27.5336C9.33759 29.7124 12.6151 30.9049 16 30.9C19.5232 30.9 22.752 29.636 25.2528 27.5336C24.6899 25.5122 23.4806 23.7307 21.8097 22.4615C20.1388 21.1923 18.0983 20.5052 16 20.5052C13.9017 20.5052 11.8612 21.1923 10.1903 22.4615C8.51936 23.7307 7.31005 25.5122 6.74721 27.5336Z" fill="white"/>
</svg>
