<svg width="47" height="34" viewBox="0 0 47 34" fill="none" xmlns="http://www.w3.org/2000/svg">
<path d="M5.4653 27.8946L5.86648 28.5257L0.465408 31.9577C-0.310573 32.4297 0.423006 33.5837 1.17988 33.0817L6.58095 29.6497L6.98213 30.2808C7.02933 30.3545 7.09061 30.4181 7.16246 30.468C7.23431 30.518 7.31531 30.5532 7.40082 30.5718C7.48633 30.5904 7.57466 30.5919 7.66075 30.5763C7.74684 30.5606 7.829 30.5282 7.90251 30.4807L8.69544 29.979C9.44684 29.5015 8.73046 28.3745 7.97906 28.852L7.74708 29.0015L6.94909 27.7428L9.00493 26.4365L11.1732 29.8475C11.3724 30.1576 11.7829 30.2491 12.0949 30.0529L13.9284 28.8879C14.2271 29.2995 14.6709 29.5825 15.1701 29.6799C15.6694 29.7773 16.187 29.6817 16.6185 29.4125L34.015 18.3582L34.6708 19.3866C34.8675 19.6961 35.278 19.7876 35.5876 19.5909L37.974 18.0745C38.1228 17.9795 38.2279 17.8295 38.2663 17.6572C38.3047 17.4849 38.2732 17.3045 38.1788 17.1553L32.975 8.96893L38.2138 5.64005L41.0392 10.0849L37.6224 12.2539C36.871 12.7314 37.5874 13.8584 38.3363 13.3804L41.7537 11.2088L42.4027 12.2331C42.6013 12.5456 43.0113 12.6396 43.3233 12.4434L45.7098 10.927C45.8585 10.832 45.9636 10.682 46.002 10.5097C46.0404 10.3374 46.009 10.157 45.9146 10.0078L40.3554 1.26246C40.31 1.18686 40.2498 1.1212 40.1784 1.06944C40.107 1.01768 40.0259 0.980868 39.9399 0.961227C39.8539 0.941586 39.7648 0.939515 39.678 0.95514C39.5912 0.970764 39.5085 1.00376 39.4348 1.05215L37.0483 2.56858C36.8995 2.66355 36.7945 2.81358 36.7561 2.98585C36.7177 3.15811 36.7491 3.33857 36.8435 3.48771L37.5012 4.51907L32.263 7.8455L30.5985 5.23036C30.5518 5.15606 30.4907 5.09176 30.419 5.04117C30.3472 4.99058 30.2661 4.9547 30.1805 4.9356C30.0948 4.9165 30.0061 4.91457 29.9197 4.92991C29.8332 4.94525 29.7507 4.97755 29.6768 5.02497L27.2933 6.53949C27.2193 6.58647 27.1552 6.6476 27.1048 6.71936C27.0544 6.79112 27.0187 6.87211 26.9996 6.95771C26.9805 7.0433 26.9785 7.13181 26.9937 7.21818C27.0088 7.30456 27.0409 7.38709 27.088 7.46108L33.3005 17.2343L15.904 28.2885C15.8305 28.3377 15.7477 28.3714 15.6607 28.3877C15.5737 28.4039 15.4843 28.4024 15.3979 28.3832C15.3115 28.3639 15.2299 28.3274 15.1581 28.2757C15.0862 28.224 15.0256 28.1583 14.9798 28.0826L10.8491 21.5876C10.7999 21.5141 10.7662 21.4313 10.7499 21.3443C10.7336 21.2573 10.7352 21.1679 10.7544 21.0816C10.7737 20.9952 10.8102 20.9136 10.8619 20.8418C10.9135 20.7699 10.9792 20.7093 11.055 20.6636L26.63 10.7667C27.3809 10.2917 26.664 9.16715 25.9156 9.64271L10.3405 19.5396C9.91353 19.816 9.60724 20.2439 9.48344 20.7372C9.35964 21.2305 9.42753 21.7523 9.67343 22.1976L7.84001 23.3626C7.69123 23.4575 7.58615 23.6076 7.54776 23.7798C7.50938 23.9521 7.54082 24.1326 7.6352 24.2817L8.29045 25.3125L5.64552 26.9932C5.50588 27.0917 5.40918 27.2399 5.37522 27.4073C5.34126 27.5748 5.37507 27.7495 5.4653 27.8946ZM39.5836 2.53764L44.4308 10.1596L43.1684 10.9617L38.3243 3.33787L39.5836 2.53764ZM29.8298 6.50363L36.6956 17.3046L35.4332 18.1068L28.5663 7.31069L29.8298 6.50363ZM22.1461 15.4323C22.0602 15.4131 21.9714 15.4111 21.8848 15.4263C21.7981 15.4415 21.7154 15.4737 21.6412 15.521L12.8949 21.0787C12.8209 21.1257 12.7568 21.1868 12.7064 21.2586C12.656 21.3304 12.6203 21.4114 12.6012 21.497C12.5821 21.5825 12.5801 21.6711 12.5953 21.7574C12.6104 21.8438 12.6425 21.9263 12.6896 22.0003L15.387 26.2438C15.434 26.3178 15.4951 26.3819 15.5669 26.4323C15.6387 26.4827 15.7197 26.5184 15.8053 26.5375C15.8909 26.5566 15.9794 26.5586 16.0658 26.5435C16.1522 26.5283 16.2348 26.4963 16.3087 26.4492L29.3014 18.1953C29.4143 18.125 29.5035 18.0226 29.5577 17.9012C29.6119 17.7798 29.6286 17.645 29.6057 17.514C29.5828 17.3831 29.5212 17.2619 29.429 17.1662C29.3367 17.0704 29.218 17.0044 29.0879 16.9766L22.1461 15.4323ZM22.1262 16.7951L27.2314 17.9327L16.1558 24.9705L14.1715 21.8456L22.1262 16.7951ZM10.3748 23.3341L13.2013 27.774L11.939 28.5761L9.11844 24.1324L10.3748 23.3341Z" fill="white"/>
</svg>
